<svg width="104" height="34" viewBox="0 0 104 34" xmlns="http://www.w3.org/2000/svg"><title>logo / unum-full-color@2x</title><g id="Symbols" fill="none" fill-rule="evenodd"><g id="footer"><g id="logo-/-unum-full-color"><g id="logo_unum_full_color" fill-rule="nonzero"><path d="M55.52 33.08c8.28 0 10.145-5.394 10.145-9.098V13.076H59.56v10.49c0 2.876-1.61 4.134-4.04 4.134-2.433 0-4.043-1.258-4.043-4.134v-10.49h-6.105v10.906c0 3.704 1.865 9.1 10.15 9.1" id="Fill-1" fill="#004276"/><path d="M10.15 33.08c8.28 0 10.146-5.394 10.146-9.098V13.076h-6.103v10.49c0 2.876-1.613 4.134-4.043 4.134-2.433 0-4.047-1.258-4.047-4.134v-10.49H0v10.906c0 3.704 1.87 9.1 10.15 9.1" id="Fill-2" fill="#004276"/><path d="M32.836 12.318c-8.282 0-10.15 5.393-10.15 9.097V32.32h6.105V21.83c0-2.87 1.613-4.13 4.046-4.13 2.43 0 4.04 1.26 4.04 4.13V32.32h6.105V21.416c0-3.704-1.866-9.097-10.144-9.097" id="Fill-3" fill="#004276"/><path d="M83.963 15.408c-.264-.352-1.82-3.09-6.815-3.09-5.087 0-9.093 2.545-9.093 8.695V32.32h5.967V21.003c0-1.982 1.013-3.5 3.476-3.5 2.47 0 3.478 1.518 3.478 3.5v11.32h5.97V21c0-1.982 1.008-3.5 3.474-3.5 2.468 0 3.48 1.518 3.48 3.5v11.32h5.963V21.01c0-6.15-4.007-8.694-9.092-8.694-4.986 0-6.547 2.738-6.807 3.09" id="Fill-4" fill="#004276"/><path d="M27.816 4.966c0 2.78 2.22 4.92 5.017 4.92 2.77 0 4.95-2.14 4.95-4.92 0-2.777-2.18-4.915-4.95-4.915-2.798 0-5.017 2.14-5.017 4.916" id="Fill-5" fill="#547083"/><path d="M50.497 4.966c0 2.78 2.222 4.92 5.02 4.92 2.77 0 4.95-2.14 4.95-4.92 0-2.777-2.18-4.915-4.95-4.915-2.798 0-5.02 2.14-5.02 4.916" id="Fill-6" fill="#547083"/><path d="M78.942 4.966c0 2.78 2.222 4.92 5.02 4.92 2.77 0 4.95-2.14 4.95-4.92C88.91 2.19 86.73.05 83.96.05c-2.798 0-5.02 2.14-5.02 4.916" id="Fill-7" fill="#547083"/><path d="M101.602 12.938a.898.898 0 0 0-.238.036v.87h.184c.328 0 .583-.12.583-.482 0-.34-.29-.424-.528-.424zm.588 2.23l-.754-1.097h-.072v1.1h-.34v-2.386c.16-.078.38-.127.607-.127.5 0 .852.28.852.705 0 .41-.292.644-.684.684l.803 1.123h-.41zm-.475-3.005c-1 0-1.796.817-1.796 1.812 0 .99.795 1.796 1.795 1.796a1.79 1.79 0 0 0 1.79-1.795c0-.995-.797-1.812-1.79-1.812zm0 3.918a2.1 2.1 0 0 1-2.106-2.105 2.11 2.11 0 0 1 2.105-2.116c1.16 0 2.105.947 2.105 2.115 0 1.17-.946 2.106-2.105 2.106z" id="Fill-8" fill="#004276"/></g></g></g></g></svg>